<?xml version="1.0" encoding="utf-8"?>
<!-- Generator: Adobe Illustrator 21.0.0, SVG Export Plug-In . SVG Version: 6.00 Build 0)  -->
<svg version="1.1" id="Layer_1" xmlns="http://www.w3.org/2000/svg" xmlns:xlink="http://www.w3.org/1999/xlink" x="0px" y="0px"
	 viewBox="0 0 623.6 113.4" style="enable-background:new 0 0 623.6 113.4;" xml:space="preserve">
<style type="text/css">
	.st0{fill:#092A5E;}
	.st1{fill:#FFFFFF;}
</style>
<rect x="-0.1" y="0" class="st0" width="624.2" height="113.2"/>
<g>
	<path class="st1" d="M100.4,76.9c-0.2,0.2-0.9,0.5-2.5,0.5c-1.4,0-2.1-0.2-2.4-0.5c-0.2-0.2-0.3-0.5-0.3-1.3V45.8l-9.2,15.6
		c-0.1,0.2-0.3,0.4-0.5,0.6l-0.2,0.2c-0.4,0.4-1.2,0.5-2.5,0.5c-1.2,0-2-0.1-2.5-0.5c-0.2-0.2-0.4-0.4-0.7-0.8l-9.1-14.7v28.9
		c0,0.8-0.1,1-0.3,1.3c-0.2,0.2-1,0.5-2.5,0.5c-1.4,0-2-0.2-2.3-0.5c-0.3-0.2-0.4-0.5-0.4-1.3V40.4l-1.3-2.1
		c-0.6-0.9-0.6-0.9-0.6-1.5c0-0.6,1.1-1,3.1-1c2.1,0,3.1,0.2,3.7,1.1l13,20.1l12-20.1c0.6-0.9,1.2-1.1,2.8-1.1
		c1.5,0,2.2,0.2,2.5,0.5c0.2,0.2,0.3,0.5,0.3,1.3v38.1C100.7,76.4,100.7,76.7,100.4,76.9z"/>
	<path class="st1" d="M141.2,77c-0.2,0.2-0.9,0.4-2.5,0.4c-1.4,0-2.1-0.2-2.4-0.5c-0.2-0.2-0.4-0.6-0.6-1.3l-3.3-9.8h-15.7l-3.3,9.8
		c-0.2,0.7-0.4,1-0.6,1.3c-0.2,0.2-1,0.5-2.3,0.5c-1.5,0-2.1-0.2-2.4-0.5c-0.2-0.2-0.2-0.4-0.2-0.6c0-0.2,0.2-0.9,0.3-1.3l13.3-38.3
		c0.2-0.7,0.7-1.2,3.1-1.2c2.5,0,2.9,0.4,3.1,1.2l13.5,38.9c0.1,0.4,0.1,0.6,0.1,0.7C141.5,76.6,141.4,76.8,141.2,77z M124.6,42.3
		l-6.3,19h12.6L124.6,42.3z"/>
	<path class="st1" d="M177.8,77.1c-0.3,0.2-0.8,0.4-2.8,0.4c-2.3,0-2.6-0.3-2.9-0.8L160.5,60c-2.5,0-4.3-0.1-6.1-0.2v15.9
		c0,0.8-0.1,1-0.3,1.3c-0.2,0.2-1,0.5-2.5,0.5c-1.4,0-2.2-0.2-2.4-0.5c-0.2-0.2-0.3-0.5-0.3-1.3V37.8c0-0.8,0.1-1,0.4-1.3
		s0.7-0.5,2.3-0.5h9.3c10,0,14.6,3.7,14.6,11.4c0,5.3-2.5,10-9,11.8l11.4,16c0.4,0.5,0.4,0.8,0.4,1.1
		C178.3,76.6,178.1,76.9,177.8,77.1z M160.8,40.7h-6.5v14.4c1.7,0.1,3.5,0.1,5.9,0.1c7.1,0,9.4-3.1,9.4-7.7
		C169.7,43.1,167.5,40.7,160.8,40.7z"/>
	<path class="st1" d="M210.8,76.6c-0.3,0.5-0.8,0.6-1.7,0.6h-20.5c-1.6,0-2.1-0.2-2.3-0.5c-0.2-0.2-0.4-0.5-0.4-1.3V37.8
		c0-0.8,0.1-1,0.4-1.3s0.7-0.5,2.3-0.5h21.2c0.7,0,0.9,0.1,1,0.2c0.2,0.2,0.2,0.6,0.2,1c0,1-0.2,2.4-0.5,2.9
		c-0.3,0.5-0.8,0.6-1.7,0.6h-17.3v11.6H207c0.7,0,0.9,0.1,1,0.2c0.2,0.2,0.2,0.6,0.2,1c0,1-0.2,2.4-0.5,2.9
		c-0.3,0.5-0.8,0.6-1.7,0.6h-14.6v15.2h18.6c0.7,0,0.9,0.1,1,0.2c0.2,0.2,0.2,0.6,0.2,1C211.3,74.7,211.1,76,210.8,76.6z"/>
	<path class="st1" d="M243.2,76.6c-0.3,0.5-0.8,0.6-1.7,0.6h-19.7c-1.6,0-2.1-0.2-2.3-0.5c-0.2-0.2-0.4-0.5-0.4-1.3V37.6
		c0-0.8,0.1-1,0.3-1.3s1-0.5,2.5-0.5c1.5,0,2.3,0.2,2.5,0.5s0.3,0.5,0.3,1.3v34.8h17.8c0.7,0,0.9,0.1,1,0.2c0.2,0.2,0.2,0.6,0.2,1
		C243.7,74.7,243.5,76,243.2,76.6z"/>
	<path class="st1" d="M275,76.6c-0.3,0.5-0.8,0.6-1.7,0.6h-19.7c-1.6,0-2.1-0.2-2.3-0.5c-0.2-0.2-0.4-0.5-0.4-1.3V37.6
		c0-0.8,0.1-1,0.3-1.3s1-0.5,2.5-0.5c1.5,0,2.3,0.2,2.5,0.5s0.3,0.5,0.3,1.3v34.8h17.8c0.7,0,0.9,0.1,1,0.2c0.2,0.2,0.2,0.6,0.2,1
		C275.4,74.7,275.3,76,275,76.6z"/>
	<path class="st1" d="M311.5,77c-0.2,0.2-0.9,0.4-2.5,0.4c-1.4,0-2.1-0.2-2.4-0.5c-0.2-0.2-0.4-0.6-0.6-1.3l-3.3-9.8h-15.7l-3.3,9.8
		c-0.2,0.7-0.4,1-0.6,1.3c-0.2,0.2-1,0.5-2.3,0.5c-1.5,0-2.1-0.2-2.4-0.5c-0.2-0.2-0.2-0.4-0.2-0.6c0-0.2,0.2-0.9,0.3-1.3L292,36.8
		c0.2-0.7,0.7-1.2,3.1-1.2c2.5,0,2.9,0.4,3.1,1.2l13.5,38.9c0.1,0.4,0.1,0.6,0.1,0.7C311.8,76.6,311.7,76.8,311.5,77z M294.9,42.3
		l-6.3,19h12.6L294.9,42.3z"/>
	<path class="st1" d="M363.2,75.8c-1,0.6-4.5,2.2-10.4,2.2c-9.9,0-17.8-7.7-17.8-21.4c0-13.6,8-21.5,18-21.5c6.3,0,9,1.6,9.7,1.9
		c1.7,0.7,1.9,1.2,1.9,1.5c0,0.4-0.2,1.3-0.7,2.2c-0.8,1.4-1.2,1.8-1.7,1.8c-0.2,0-0.6-0.1-1-0.3c-0.4-0.2-2.6-2-8.2-2
		c-7.4,0-12,6-12,16.4c0,10.4,5.2,16.3,12.1,16.3c4.9,0,7.5-1.7,8.2-2c0.7-0.3,0.9-0.4,1.2-0.4c0.4,0,0.9,0.4,1.6,1.4
		c0.7,1.1,0.9,1.8,0.9,2.3C365,74.7,364.8,75,363.2,75.8z"/>
	<path class="st1" d="M401.8,77.1c-0.3,0.2-0.8,0.4-2.8,0.4c-2.3,0-2.6-0.3-2.9-0.8L384.5,60c-2.5,0-4.3-0.1-6.1-0.2v15.9
		c0,0.8-0.1,1-0.3,1.3c-0.2,0.2-1,0.5-2.5,0.5c-1.4,0-2.2-0.2-2.4-0.5c-0.2-0.2-0.3-0.5-0.3-1.3V37.8c0-0.8,0.1-1,0.4-1.3
		c0.2-0.2,0.7-0.5,2.3-0.5h9.3c10,0,14.6,3.7,14.6,11.4c0,5.3-2.5,10-9,11.8l11.4,16c0.4,0.5,0.4,0.8,0.4,1.1
		C402.3,76.6,402.1,76.9,401.8,77.1z M384.8,40.7h-6.5v14.4c1.7,0.1,3.5,0.1,5.9,0.1c7.1,0,9.4-3.1,9.4-7.7
		C393.7,43.1,391.5,40.7,384.8,40.7z"/>
	<path class="st1" d="M424.9,78c-11.1,0-15.3-5.8-15.3-13.8V37.6c0-0.8,0.1-1,0.3-1.3s1-0.5,2.6-0.5c1.4,0,2.2,0.2,2.4,0.5
		c0.2,0.2,0.3,0.5,0.3,1.3V65c0,4.4,3,8.2,9.7,8.2s9.7-3.9,9.7-8.2V37.6c0-0.8,0.1-1,0.3-1.3c0.2-0.2,1-0.5,2.5-0.5
		c1.4,0,2.2,0.2,2.5,0.5c0.2,0.2,0.3,0.5,0.3,1.3v26.7C440.2,72.3,436,78,424.9,78z"/>
	<path class="st1" d="M456.8,76.9c-0.2,0.2-1,0.5-2.5,0.5c-1.4,0-2.2-0.2-2.4-0.5c-0.2-0.2-0.3-0.5-0.3-1.3V37.6
		c0-0.8,0.1-1,0.3-1.3c0.2-0.2,1-0.5,2.4-0.5c1.5,0,2.3,0.2,2.5,0.5s0.3,0.5,0.3,1.3v38.1C457.1,76.4,457,76.7,456.8,76.9z"/>
	<path class="st1" d="M479.7,78c-6.9,0-10.4-2-12.3-3.2c-1.4-0.8-1.6-1.3-1.6-1.8c0-0.4,0.7-1.8,1.4-2.7c0.6-0.6,0.7-0.8,1.2-0.8
		c0.2,0,0.5,0.1,0.9,0.4c0.5,0.3,1,0.6,1.5,0.9c1.6,0.9,4.5,2.2,8.5,2.2c5.6,0,9.8-2.2,9.8-6.8c0-3.9-2.3-5.5-8.8-7.3l-2.6-0.7
		c-6.6-1.8-11.2-4.6-11.2-11.4c0-7.3,5.2-11.7,13.8-11.7c3.4,0,5.5,0.4,7.1,0.9c1.6,0.4,2.6,0.9,3,1.1c1.7,0.7,1.9,1.2,1.9,1.5
		c0,0.4-0.4,1.7-0.9,2.6c-0.4,0.7-0.7,1-1.1,1c-0.2,0-0.6-0.1-1-0.2c-0.4-0.2-2.5-1.2-4.2-1.6c-1.1-0.2-2.5-0.5-4.7-0.5
		c-5.6,0-8.4,2.8-8.4,6.5c0,3.6,3.1,5.2,8.4,6.6l3.3,0.9c6.6,1.8,11.1,4.7,11.1,11.5C494.5,73.8,489,78,479.7,78z"/>
	<path class="st1" d="M528.4,76.6c-0.3,0.5-0.8,0.6-1.7,0.6h-20.5c-1.6,0-2.1-0.2-2.3-0.5c-0.2-0.2-0.4-0.5-0.4-1.3V37.8
		c0-0.8,0.1-1,0.4-1.3c0.2-0.2,0.7-0.5,2.3-0.5h21.2c0.7,0,0.9,0.1,1,0.2c0.2,0.2,0.2,0.6,0.2,1c0,1-0.2,2.4-0.5,2.9
		c-0.3,0.5-0.8,0.6-1.7,0.6H509v11.6h15.5c0.7,0,0.9,0.1,1,0.2c0.2,0.2,0.2,0.6,0.2,1c0,1-0.2,2.4-0.5,2.9c-0.3,0.5-0.8,0.6-1.7,0.6
		H509v15.2h18.6c0.7,0,0.9,0.1,1,0.2c0.2,0.2,0.2,0.6,0.2,1C528.9,74.7,528.7,76,528.4,76.6z"/>
	<path class="st1" d="M547.6,78c-6.9,0-10.4-2-12.3-3.2c-1.4-0.8-1.6-1.3-1.6-1.8c0-0.4,0.7-1.8,1.4-2.7c0.6-0.6,0.7-0.8,1.2-0.8
		c0.2,0,0.5,0.1,0.9,0.4c0.5,0.3,1,0.6,1.5,0.9c1.6,0.9,4.5,2.2,8.5,2.2c5.6,0,9.8-2.2,9.8-6.8c0-3.9-2.3-5.5-8.8-7.3l-2.6-0.7
		c-6.6-1.8-11.2-4.6-11.2-11.4c0-7.3,5.2-11.7,13.8-11.7c3.4,0,5.5,0.4,7.1,0.9c1.6,0.4,2.6,0.9,3,1.1c1.7,0.7,1.9,1.2,1.9,1.5
		c0,0.4-0.4,1.7-0.9,2.6c-0.4,0.7-0.7,1-1.1,1c-0.2,0-0.6-0.1-1-0.2c-0.4-0.2-2.5-1.2-4.2-1.6c-1.1-0.2-2.5-0.5-4.7-0.5
		c-5.6,0-8.4,2.8-8.4,6.5c0,3.6,3.1,5.2,8.4,6.6l3.3,0.9c6.6,1.8,11.1,4.7,11.1,11.5C562.4,73.8,557,78,547.6,78z"/>
</g>
</svg>
